<svg width="150" height="48" viewBox="0 0 150 48" fill="none" xmlns="http://www.w3.org/2000/svg">
<path d="M33.0036 22.5455C32.3345 16.48 27.52 11.6655 21.4545 10.9964V8H18.5455V10.9964C12.48 11.6655 7.66545 16.48 6.99636 22.5455H4V25.4545H6.99636C7.66545 31.52 12.48 36.3345 18.5455 37.0036V40H21.4545V37.0036C27.52 36.3345 32.3345 31.52 33.0036 25.4545H36V22.5455H33.0036ZM20 34.1818C14.3709 34.1818 9.81818 29.6291 9.81818 24C9.81818 18.3709 14.3709 13.8182 20 13.8182C25.6291 13.8182 30.1818 18.3709 30.1818 24C30.1818 29.6291 25.6291 34.1818 20 34.1818Z" fill="#2759CD"/>
<path d="M25.7656 24.7602C25.7966 24.512 25.8199 24.2638 25.8199 24C25.8199 23.7362 25.7966 23.488 25.7656 23.2398L27.4024 21.9598C27.5498 21.8434 27.5886 21.6339 27.4955 21.4633L25.944 18.7792C25.8742 18.655 25.7423 18.5852 25.6027 18.5852C25.5561 18.5852 25.5096 18.593 25.4708 18.6085L23.5392 19.3842C23.1358 19.0739 22.7013 18.8179 22.2281 18.624L21.9333 16.5682C21.9101 16.3821 21.7472 16.2424 21.5532 16.2424H18.4502C18.2563 16.2424 18.0933 16.3821 18.0701 16.5682L17.7753 18.624C17.3021 18.8179 16.8677 19.0817 16.4643 19.3842L14.5326 18.6085C14.4861 18.593 14.4395 18.5852 14.393 18.5852C14.2611 18.5852 14.1292 18.655 14.0594 18.7792L12.5079 21.4633C12.407 21.6339 12.4536 21.8434 12.601 21.9598L14.2378 23.2398C14.2068 23.488 14.1835 23.744 14.1835 24C14.1835 24.256 14.2068 24.512 14.2378 24.7602L12.601 26.0402C12.4536 26.1566 12.4148 26.3661 12.5079 26.5367L14.0594 29.2209C14.1292 29.345 14.2611 29.4148 14.4007 29.4148C14.4473 29.4148 14.4938 29.407 14.5326 29.3915L16.4643 28.6158C16.8677 28.9261 17.3021 29.1821 17.7753 29.376L18.0701 31.4318C18.0933 31.6179 18.2563 31.7576 18.4502 31.7576H21.5532C21.7472 31.7576 21.9101 31.6179 21.9333 31.4318L22.2281 29.376C22.7013 29.1821 23.1358 28.9183 23.5392 28.6158L25.4708 29.3915C25.5173 29.407 25.5639 29.4148 25.6104 29.4148C25.7423 29.4148 25.8742 29.345 25.944 29.2209L27.4955 26.5367C27.5886 26.3661 27.5498 26.1566 27.4024 26.0402L25.7656 24.7602ZM24.2296 23.4337C24.2606 23.6742 24.2684 23.8371 24.2684 24C24.2684 24.1629 24.2529 24.3336 24.2296 24.5663L24.121 25.4429L24.8114 25.9859L25.6492 26.6376L25.1062 27.5762L24.121 27.1806L23.3142 26.8548L22.616 27.3823C22.2824 27.6306 21.9644 27.8167 21.6463 27.9486L20.824 28.2822L20.6999 29.1588L20.5447 30.2061H19.4587L19.1872 28.2822L18.3649 27.9486C18.0313 27.809 17.721 27.6306 17.4107 27.3978L16.7047 26.8548L15.8824 27.1884L14.8972 27.584L14.3542 26.6453L15.192 25.9937L15.8824 25.4507L15.7738 24.5741C15.7506 24.3336 15.735 24.1552 15.735 24C15.735 23.8449 15.7506 23.6664 15.7738 23.4337L15.8824 22.5571L15.192 22.0141L14.3542 21.3624L14.8972 20.4238L15.8824 20.8194L16.6892 21.1452L17.3874 20.6177C17.721 20.3695 18.039 20.1833 18.3571 20.0514L19.1794 19.7178L19.3035 18.8412L19.4587 17.7939H20.537L20.8085 19.7178L21.6308 20.0514C21.9644 20.191 22.2747 20.3695 22.585 20.6022L23.2909 21.1452L24.1132 20.8116L25.0984 20.416L25.6415 21.3547L24.8114 22.0141L24.121 22.5571L24.2296 23.4337ZM20.0017 20.897C18.2873 20.897 16.8987 22.2856 16.8987 24C16.8987 25.7144 18.2873 27.103 20.0017 27.103C21.7161 27.103 23.1047 25.7144 23.1047 24C23.1047 22.2856 21.7161 20.897 20.0017 20.897ZM20.0017 25.5515C19.1484 25.5515 18.4502 24.8533 18.4502 24C18.4502 23.1467 19.1484 22.4485 20.0017 22.4485C20.855 22.4485 21.5532 23.1467 21.5532 24C21.5532 24.8533 20.855 25.5515 20.0017 25.5515Z" fill="#2759CD"/>
<path d="M59.568 14.816H59.184C57.2853 14.816 55.8027 15.296 54.736 16.256C53.6907 17.1947 53.168 18.8693 53.168 21.28C53.168 22.0693 53.2427 22.624 53.392 22.944C53.5413 23.2427 53.616 23.4133 53.616 23.456C52.464 23.456 51.6 23.2213 51.024 22.752C50.4693 22.2613 50.192 21.4613 50.192 20.352C50.192 18.8373 50.5653 17.4613 51.312 16.224C52.0587 14.9653 53.2427 13.952 54.864 13.184C56.5067 12.416 58.5867 12.032 61.104 12.032C62.512 12.032 64.0267 12.16 65.648 12.416C67.0133 12.6507 68.2293 12.768 69.296 12.768C70.6613 12.768 71.8987 12.544 73.008 12.096C72.9653 13.4827 72.6133 14.5067 71.952 15.168C71.2907 15.8293 70.3093 16.16 69.008 16.16C68.3253 16.16 67.6427 16.1067 66.96 16C66.2773 15.8933 65.3067 15.712 64.048 15.456L59.632 36H55.024L59.568 14.816ZM70.0783 36.128C68.4996 36.128 67.2516 35.7227 66.3343 34.912C65.4169 34.1013 64.9582 32.8213 64.9582 31.072C64.9582 29.6213 65.2569 28.0107 65.8543 26.24C66.4516 24.4693 67.4116 22.944 68.7343 21.664C70.0569 20.3627 71.7209 19.712 73.7263 19.712C76.4569 19.712 77.8223 21.4187 77.8223 24.832V24.864C77.8863 24.8853 78.0036 24.896 78.1743 24.896C78.8783 24.896 79.6889 24.7147 80.6063 24.352C81.5236 23.968 82.3556 23.5093 83.1023 22.976L83.3903 23.84C82.7716 24.5013 81.9609 25.0667 80.9583 25.536C79.9769 25.984 78.8996 26.304 77.7263 26.496C77.5556 28.4373 77.1183 30.1333 76.4143 31.584C75.7103 33.0347 74.8036 34.1547 73.6943 34.944C72.5849 35.7333 71.3796 36.128 70.0783 36.128ZM71.3583 33.248C71.8703 33.248 72.3823 32.96 72.8943 32.384C73.4063 31.7867 73.8543 30.9867 74.2383 29.984C74.6223 28.96 74.8996 27.8293 75.0703 26.592C74.4943 26.464 74.2063 26.016 74.2063 25.248C74.2063 24.3733 74.5369 23.7973 75.1983 23.52C75.1556 22.816 75.0489 22.336 74.8783 22.08C74.7076 21.8027 74.4089 21.664 73.9823 21.664C73.2783 21.664 72.5956 22.176 71.9343 23.2C71.2729 24.224 70.7396 25.4507 70.3343 26.88C69.9289 28.3093 69.7263 29.568 69.7263 30.656C69.7263 31.68 69.8436 32.3733 70.0783 32.736C70.3129 33.0773 70.7396 33.248 71.3583 33.248ZM84.0448 36.192C82.4661 36.192 81.2394 35.7867 80.3648 34.976C79.4901 34.144 79.0527 32.8533 79.0527 31.104C79.0527 29.632 79.3407 28.0107 79.9168 26.24C80.4928 24.4693 81.4314 22.944 82.7328 21.664C84.0341 20.3627 85.6874 19.712 87.6927 19.712C90.0394 19.712 91.2128 20.736 91.2128 22.784C91.2128 23.9787 90.8714 25.0773 90.1888 26.08C89.5061 27.0827 88.5994 27.8933 87.4688 28.512C86.3381 29.1093 85.1328 29.4507 83.8528 29.536C83.8101 30.176 83.7888 30.6027 83.7888 30.816C83.7888 31.8613 83.9701 32.576 84.3328 32.96C84.6954 33.3227 85.2821 33.504 86.0928 33.504C87.2448 33.504 88.2261 33.2373 89.0368 32.704C89.8688 32.1707 90.7754 31.36 91.7568 30.272H92.8448C90.4768 34.2187 87.5434 36.192 84.0448 36.192ZM84.1088 28C84.8981 27.9573 85.6448 27.68 86.3488 27.168C87.0741 26.656 87.6501 26.0053 88.0768 25.216C88.5248 24.4267 88.7488 23.5947 88.7488 22.72C88.7488 21.8453 88.4821 21.408 87.9488 21.408C87.1808 21.408 86.4234 22.08 85.6768 23.424C84.9514 24.768 84.4288 26.2933 84.1088 28ZM94.918 36.192C93.894 36.192 93.062 35.872 92.422 35.232C91.8033 34.592 91.494 33.632 91.494 32.352C91.494 31.8187 91.5793 31.1253 91.75 30.272L95.174 14.24L99.91 13.6L96.23 30.88C96.1447 31.2 96.102 31.5413 96.102 31.904C96.102 32.3307 96.198 32.64 96.39 32.832C96.6033 33.0027 96.9447 33.088 97.414 33.088C98.0327 33.088 98.6087 32.832 99.142 32.32C99.6753 31.7867 100.059 31.104 100.294 30.272H101.638C100.849 32.576 99.8353 34.144 98.598 34.976C97.3607 35.7867 96.134 36.192 94.918 36.192ZM104.537 36.192C103.087 36.192 101.977 35.84 101.209 35.136C100.441 34.4107 100.057 33.3973 100.057 32.096C100.057 31.456 100.132 30.848 100.281 30.272L103.705 14.24L108.441 13.6L106.905 20.8C107.503 20.4373 107.993 20.2027 108.377 20.096C108.761 19.968 109.145 19.904 109.529 19.904C112.047 19.904 113.305 21.728 113.305 25.376C113.305 26.848 113.017 28.4267 112.441 30.112C111.887 31.776 110.948 33.2053 109.625 34.4C108.324 35.5947 106.628 36.192 104.537 36.192ZM106.329 33.088C106.991 33.088 107.609 32.6827 108.185 31.872C108.761 31.04 109.22 30.016 109.561 28.8C109.903 27.5627 110.073 26.3787 110.073 25.248C110.073 24.3947 109.924 23.6693 109.625 23.072C109.327 22.4747 108.911 22.176 108.377 22.176C108.057 22.176 107.695 22.2293 107.289 22.336C106.905 22.4213 106.639 22.56 106.489 22.752L104.729 30.88C104.665 31.136 104.633 31.3813 104.633 31.616C104.633 32.5973 105.199 33.088 106.329 33.088ZM129.412 36.928C128.708 36.928 128.175 36.7253 127.812 36.32C127.471 35.9147 127.3 35.36 127.3 34.656C127.3 33.6533 127.769 32.544 128.708 31.328C129.668 30.112 130.777 29.088 132.036 28.256L131.14 23.296C129.839 24.8533 128.399 25.8773 126.82 26.368C126.649 28.3307 126.201 30.048 125.476 31.52C124.772 32.992 123.865 34.1333 122.756 34.944C121.647 35.7333 120.441 36.128 119.14 36.128C117.561 36.128 116.313 35.7227 115.396 34.912C114.479 34.1013 114.02 32.8213 114.02 31.072C114.02 29.6213 114.319 28.0107 114.916 26.24C115.513 24.4693 116.473 22.944 117.796 21.664C119.119 20.3627 120.783 19.712 122.788 19.712C125.497 19.712 126.863 21.3867 126.884 24.736C128.057 24.608 129.369 23.5413 130.82 21.536L130.532 20H135.044L136.196 26.336C137.241 25.4187 138.02 24.5867 138.532 23.84C139.065 23.0933 139.332 22.4213 139.332 21.824C139.332 21.632 139.321 21.504 139.3 21.44C139.001 21.4827 138.82 21.504 138.756 21.504C138.223 21.504 137.839 21.344 137.604 21.024C137.369 20.6827 137.252 20.2453 137.252 19.712C137.252 19.2427 137.423 18.88 137.764 18.624C138.105 18.3467 138.532 18.208 139.044 18.208C139.727 18.208 140.26 18.4747 140.644 19.008C141.028 19.5413 141.22 20.224 141.22 21.056C141.22 22.1227 140.857 23.2 140.132 24.288C139.407 25.376 138.212 26.6667 136.548 28.16L136.932 30.272C136.953 30.3787 137.017 30.72 137.124 31.296C137.252 31.8507 137.455 32.288 137.732 32.608C138.009 32.928 138.372 33.088 138.82 33.088C139.439 33.088 140.015 32.832 140.548 32.32C141.081 31.7867 141.465 31.104 141.7 30.272H143.044C142.255 32.576 141.252 34.144 140.036 34.976C138.841 35.7867 137.647 36.192 136.452 36.192C135.684 36.192 135.044 36 134.532 35.616C134.041 35.2107 133.636 34.5813 133.316 33.728C132.996 32.8747 132.697 31.7227 132.42 30.272L132.356 30.048C130.436 31.392 129.476 32.5867 129.476 33.632C129.54 33.6107 129.679 33.6 129.892 33.6C130.767 33.6 131.204 34.1227 131.204 35.168C131.204 35.7653 131.044 36.2027 130.724 36.48C130.404 36.7787 129.967 36.928 129.412 36.928ZM120.42 33.248C120.932 33.248 121.444 32.96 121.956 32.384C122.468 31.7867 122.916 30.9867 123.3 29.984C123.684 28.9813 123.961 27.8613 124.132 26.624C123.556 26.4533 123.268 25.9733 123.268 25.184C123.268 24.288 123.599 23.7227 124.26 23.488C124.217 22.8053 124.1 22.336 123.908 22.08C123.737 21.8027 123.449 21.664 123.044 21.664C122.34 21.664 121.657 22.176 120.996 23.2C120.335 24.224 119.801 25.4507 119.396 26.88C118.991 28.3093 118.788 29.568 118.788 30.656C118.788 31.68 118.905 32.3733 119.14 32.736C119.375 33.0773 119.801 33.248 120.42 33.248Z" fill="black"/>
</svg>
