<svg width="32" height="32" viewBox="0 0 32 32" fill="none" xmlns="http://www.w3.org/2000/svg">
<path d="M29.0036 14.5455C28.3345 8.48 23.52 3.66545 17.4545 2.99636V0H14.5455V2.99636C8.48 3.66545 3.66545 8.48 2.99636 14.5455H0V17.4545H2.99636C3.66545 23.52 8.48 28.3345 14.5455 29.0036V32H17.4545V29.0036C23.52 28.3345 28.3345 23.52 29.0036 17.4545H32V14.5455H29.0036ZM16 26.1818C10.3709 26.1818 5.81818 21.6291 5.81818 16C5.81818 10.3709 10.3709 5.81818 16 5.81818C21.6291 5.81818 26.1818 10.3709 26.1818 16C26.1818 21.6291 21.6291 26.1818 16 26.1818Z" fill="#2759CD"/>
<path d="M21.7656 16.7602C21.7966 16.512 21.8199 16.2638 21.8199 16C21.8199 15.7362 21.7966 15.488 21.7656 15.2398L23.4024 13.9598C23.5498 13.8434 23.5886 13.6339 23.4955 13.4633L21.944 10.7792C21.8742 10.655 21.7423 10.5852 21.6027 10.5852C21.5561 10.5852 21.5096 10.593 21.4708 10.6085L19.5392 11.3842C19.1358 11.0739 18.7013 10.8179 18.2281 10.624L17.9333 8.56825C17.9101 8.38207 17.7472 8.24243 17.5532 8.24243H14.4502C14.2563 8.24243 14.0933 8.38207 14.0701 8.56825L13.7753 10.624C13.3021 10.8179 12.8677 11.0817 12.4643 11.3842L10.5326 10.6085C10.4861 10.593 10.4395 10.5852 10.393 10.5852C10.2611 10.5852 10.1292 10.655 10.0594 10.7792L8.50789 13.4633C8.40705 13.6339 8.45359 13.8434 8.60098 13.9598L10.2378 15.2398C10.2068 15.488 10.1835 15.744 10.1835 16C10.1835 16.256 10.2068 16.512 10.2378 16.7602L8.60098 18.0402C8.45359 18.1566 8.4148 18.3661 8.50789 18.5367L10.0594 21.2209C10.1292 21.345 10.2611 21.4148 10.4007 21.4148C10.4473 21.4148 10.4938 21.407 10.5326 21.3915L12.4643 20.6158C12.8677 20.9261 13.3021 21.1821 13.7753 21.376L14.0701 23.4318C14.0933 23.6179 14.2563 23.7576 14.4502 23.7576H17.5532C17.7472 23.7576 17.9101 23.6179 17.9333 23.4318L18.2281 21.376C18.7013 21.1821 19.1358 20.9183 19.5392 20.6158L21.4708 21.3915C21.5173 21.407 21.5639 21.4148 21.6104 21.4148C21.7423 21.4148 21.8742 21.345 21.944 21.2209L23.4955 18.5367C23.5886 18.3661 23.5498 18.1566 23.4024 18.0402L21.7656 16.7602ZM20.2296 15.4337C20.2606 15.6742 20.2684 15.8371 20.2684 16C20.2684 16.1629 20.2529 16.3336 20.2296 16.5663L20.121 17.4429L20.8114 17.9859L21.6492 18.6376L21.1062 19.5762L20.121 19.1806L19.3142 18.8548L18.616 19.3823C18.2824 19.6306 17.9644 19.8167 17.6463 19.9486L16.824 20.2822L16.6999 21.1588L16.5447 22.2061H15.4587L15.1872 20.2822L14.3649 19.9486C14.0313 19.809 13.721 19.6306 13.4107 19.3978L12.7047 18.8548L11.8824 19.1884L10.8972 19.584L10.3542 18.6453L11.192 17.9937L11.8824 17.4507L11.7738 16.5741C11.7506 16.3336 11.735 16.1552 11.735 16C11.735 15.8449 11.7506 15.6664 11.7738 15.4337L11.8824 14.5571L11.192 14.0141L10.3542 13.3624L10.8972 12.4238L11.8824 12.8194L12.6892 13.1452L13.3874 12.6177C13.721 12.3695 14.039 12.1833 14.3571 12.0514L15.1794 11.7178L15.3035 10.8412L15.4587 9.79395H16.537L16.8085 11.7178L17.6308 12.0514C17.9644 12.191 18.2747 12.3695 18.585 12.6022L19.2909 13.1452L20.1132 12.8116L21.0984 12.416L21.6415 13.3547L20.8114 14.0141L20.121 14.5571L20.2296 15.4337ZM16.0017 12.897C14.2873 12.897 12.8987 14.2856 12.8987 16C12.8987 17.7144 14.2873 19.103 16.0017 19.103C17.7161 19.103 19.1047 17.7144 19.1047 16C19.1047 14.2856 17.7161 12.897 16.0017 12.897ZM16.0017 17.5515C15.1484 17.5515 14.4502 16.8533 14.4502 16C14.4502 15.1467 15.1484 14.4485 16.0017 14.4485C16.855 14.4485 17.5532 15.1467 17.5532 16C17.5532 16.8533 16.855 17.5515 16.0017 17.5515Z" fill="#2759CD"/>
</svg>
